<svg width="50" height="63" viewBox="0 0 50 63" xmlns="http://www.w3.org/2000/svg"><path d="M23.012 3.851c.044-.014.197-.044.374-.106.396-.138.612-.149.924-.06.312.09.27.246.255.476-.058.022-.065.024-.117.07-.12.103-.244.103-.47.077-.226-.025-.596-.223-.806-.309a.971.971 0 0 1-.181-.098c-.017-.016-.017-.038.021-.05zM49.579 32.85c-.344-.893-2.307-.56-2.89-.268-.585.292-2.473-.26-3.9-.655-1.425-.396-2.694-.268-3.227.402-.354.446-1.434.83-2.118 1.037a25.82 25.82 0 0 0-2.002-1.02l-.005-.006c-.238-.25.064-.395.372-.538.31-.143.198-.311-.236-.408-.377-.084-3.05-.48-3.747-.583a125.513 125.513 0 0 1-3.18-1.342 66.667 66.667 0 0 1-1.99-.914c-.251-.183-.54-.369-.553-.543-.02-.281-.08-.687.17-1.26.166-.379 1.238-1.034 1.77-1.292.533-.258 1.015-.615 1.462-.374.447.24 1.03.24 1.116.188.086-.051-.017-.223-.257-.36-.24-.138-.31-.465-.31-.465.533-.154 1.375.43 1.427.637.052.206.361 0 .361 0 .464-.516-1.065-1.204-.619-1.41.447-.207.731.238.861.31.267.15.333-.105.175-.459-.278-.619-1.26-.573-1.105-.676.155-.104.465-.07.465-.07s.17.042.206-.17c.052-.318-.533-.38-.877-.363-.344.017-.63.252-.895.104-.113-.062-.089-.166.008-.311.097-.147.353-.403-.107-.412-.64-.013-.9.644-.946.874-.046.23-.085.975-.929 1.241-.948.3-1.931.833-2.872.897-.916.062-1.655.509-1.862.68-.15.126-.389.686-.507.978-.456-.355-.881-.73-1.292-1.144-.274-2.221 3.095-2.923 3.439-2.888.343.034.446-.207.446-.207 1.083-2.527 3.163-2.286 3.163-2.286s1.392-.034 1.546-.07c.155-.034.276-.136.24-1.494-.034-1.358.877-1.41.877-1.41s.637 0 .894.035c.258.034.275-.172.275-.172l.12-.224c.757-.945 2.733-.395 2.87-.395.138 0 .104-.19.104-.19 0-.463.447-1.048.447-1.048 3.11-2.011 2.387-7.85 2.302-8.23-.086-.377-.399-.298-.512-.027-.114.272-.499 1.205-.499 1.205-.721 1.822-4.963 4.263-5.668 4.658-.705.396-6.317 2.33-6.588 2.418-2.862.937-3.777 2.515-4.038 3.63-.18.767-.34 1.489-.655 2.328-.349.887-1.401.619-1.844.46-.563-.82-1.179-1.747-1.886-2.81C11.991 11.53 18.07 6.22 18.07 6.22c.599-.43 1.012-.656 1.344-.76a.617.617 0 0 0 .389.361c.79.262 2.112.569 3.666 1.655 2.557 1.786 3.247.852 3.369.811.121-.04.61-.506-.101-.546-.711-.04-.792-.428-1.827-.916-1.035-.487-.731-.67-.731-.67.934-1.115 3.917-.283 4.181-.181.264.1.466.466.872 0 1.146-1.318-3.51-1.868-3.612-1.868-.101 0-.305 0-.284-.284.02-.284.708-.464-.69-.954-.447-.157-1.116-.142-1.299-.386-.183-.244-.63-.365-1.177-.325-.548.04-1.005-.156-1.56-.821-.544-.65-1.365-1.375-1.832-1.334-.466.04.034 1.394.445 2.39.14.34.218.562.263.709a7.237 7.237 0 0 0-.895.302l-.116.047-.013.006c-.38.159-1.525.634-2.113.857-1.22.464-1.154.725-.831.808.1.026.17.05.194.091-.474.409-.93.863-1.357 1.358-.876.786-2.316 2.083-2.557 2.339-.352.373-.402.696-.092.765.246.055.488.115.507.398-.18.455-.333.925-.452 1.406l-.003-.079s-.43 1.877-.592 3.286c-.064.558.076.6.38.465.044.338.106.678.188 1.02a29.346 29.346 0 0 0 2.226 6.182l-.508-.285s-2.13-1.62-3.004-4.913c-.874-3.292-3.175-5.424-3.684-5.768-.509-.346-4.785-3.932-5.472-6.146L.633 3.574s-.51-.415-.59.413c-.077.828-.417 8.476 3.29 11.08 0 0 .695.788.534 1.153-.16.366.57.62.57.62s1.06.396.877 1.142c-.184.745-.263.971.04 1.289.301.317 1.753 1.115 1.784 1.596.032.48.507 1.394-.288 1.797 0 0-.268.266.373.401 0 0 1.854-.09 2.227.861 0 0 .028.36.338.369.31.007.998.037 1.27.494.272.456.839.42.839.42s3.027-.482 3.842.302a.685.685 0 0 0 .125.098c.322.472.654.927.995 1.366-.32.883-.977 2.203-2.032 2.169a9.182 9.182 0 0 1-2.945-.634s-.412-.088-.378-.38c.038-.335.004-.923-.288-1.275-.19-.23-.446-.378-.548-.19-.103.19.238 1.141-.322 1.165 0 0-.143-.012-.194-.081-.051-.069-.533-1.1-1.376-.757 0 0-.257.104-.05.275.206.172.377.396.257.568-.12.171-.704-.74-1.616-.07 0 0-.12.276.172.31.292.035.79.275.74.516l-.225.206s-.824.413-.446 1.1c0 0 .154.12.24-.068.087-.19.98-.808 1.444-.379.465.43.172.843-.034.946-.206.103-.24.378.051.413.293.033 1.1-.499 1.306-.602.207-.103.768-.07 1.342.171l2.595 1.256s.999.592 1.7.016c.76-.624 2.673-1.547 3.996-.963l.27.118a25.61 25.61 0 0 0 1.835 1.432h-.002s2.263 2.228 2.591 2.53c.328.303.47.303.475-.037.002-.194.158-.445.501-.392h.004c.325.156.65.303.97.438 1.996.84 3.574 1.531 4.79 2.078-.202.317-.4.666-.51.95-.275.705-.637.862-1.117.931-.482.068-1.866.573-2.955.514-1.026-.055-1.573.847-1.79 1.271-.143.283-.295 1.536.29 1.95 0 0 .192-.007.192-.197 0-.189-.125-.63.275-.859.27-.154-.224.912.452 1.255 0 0 .136-.088.17-.226.035-.137-.045-.96.449-.938 0 0 .133.991.684.922 0 0 .154.052.103-.19 0 0-.45-1.29.395-1.254.471.02.279.66.3.853.033.31.215.608.353.471.137-.138.69-.932.275-1.65-.211-.365.72-.465.96-.396s2.19.412 2.992-.462c.606-.661 1.208-1.163 1.905-1.314 1.182.87 1.518 1.98.81 2.991-1.3 1.86-9.882 4.266-10.62 4.47 0 0-3.491.716-3.841.804-.35.087-.414.183-.185.338a.32.32 0 0 1 .08.46c-1.19.841-2.201 2.094-2.243 3.928-.103 4.535 3.506 6.391 10.725 6.288 7.218-.103 9.694 4.742 9.694 4.742.412.67.618.464.618.464-.888-4.436-6.928-6.342-10.909-7.123-.142-.067.125-.408-.04-.561-.101-.095-.184-.046-.616.025-.944.157-1.981.106-2.471.067l-.178-.017v-.006l-.11-.004-.112-.01s-2.115-.412-2.63-1.855c-1.29-3.607 3.145-4.484 3.145-4.484 11.186-1.566 14.334-3.969 14.334-3.969s3.97-2.783 2.114-6.34c-.26-.5-.537-.96-.829-1.388-.024-.3-.43-.891-.618-1.325-.224-.515-.205-1.055.536-1.632.598-.466 4.228-.256 4.228-.256.155.876 1.082 1.323 1.169 1.409.086.086.034-.206.034-.206-.498-.843.25-1.257.68-.879.43.379.544.926.733.84.19-.086.215-.378.19-.623-.023-.239-.382-.807-.243-.782.239.044.479.56.565.644.086.083.226.001.252-.088.116-.409 0-.669-.11-1.108.215.075.258.518.34.397.21-.315-.018-.847-.018-.847zM27.199 6.56c-.094-.005-.26.016-.312.1-.286.455.169.44.849.9.309.208.554.499.818.76.507.5 1.09 1.106 1.78 1.337.407.137.928.138 1.344.036-1.364-.182-2.027-1.478-2.843-2.093 0 0 1.45.968 2.127 1.197.677.23 1.688.451 2.114-.269-.389.202-1.103.027-1.726-.251-.44-.198-.813-.505-1.208-.776a5.014 5.014 0 0 0-1.744-.758c-.562-.122-.888-.168-1.2-.183z" fill="#E30045" fill-rule="evenodd"/></svg>