<svg width="174" height="71" viewBox="0 0 174 71" xmlns="http://www.w3.org/2000/svg" xmlns:xlink="http://www.w3.org/1999/xlink"><defs><path id="a" d="M0 70.707h173.517V.008H0v70.699z"/></defs><g fill="none" fill-rule="evenodd"><mask id="b" fill="#fff"><use xlink:href="#a"/></mask><path d="M169.424 16.057l-2.075-1.665c-1.367-1.102-2.458-1.965-2.458-3.76 0-1.966 1.166-2.845 2.903-2.845 2.29 0 5.048.94 5.048.94V3.225s-2.212-.957-5.735-.957c-4.182 0-9.224 1.914-9.224 8.805 0 4.278 2.16 6.492 4.024 8.088l2.222 1.922c1.366 1.158 2.297 2.063 2.297 3.649 0 2.328-1.426 2.931-3.298 2.931-1.535 0-5.16-.911-5.16-.911v5.653s2.57.906 5.894.906c4.641 0 9.655-1.197 9.655-8.84 0-4.458-1.973-6.733-4.093-8.414zm-21.893 9.19c0 1.83-.77 2.632-2.266 2.632-1.656 0-2.264-.75-2.264-2.632V2.7h-7.091v21.642c0 6.703 3.094 8.969 9.355 8.969 6.031 0 9.355-2.412 9.355-8.969V2.7h-7.089v22.547zM114.376 8.475h5.938V32.88h7.089V8.475h5.042l.898-5.775h-18.967v5.775zM102.212 22.1l.892-6.034c.384-2.829 1.332-10.184 1.332-10.184s.94 7.277 1.351 10.184l.87 6.034h-4.445zm-2.048-19.4l-6.965 30.18h7.433l.85-5.518h5.908l.846 5.518h7.433L108.733 2.7h-8.57zm-14.578 0h-7.09v30.18h12.557l.898-5.733h-6.365V2.7zm-19.28 30.18h7.176V2.7h-7.176v30.18zM52.074 19.167V7.698h.992c2.035 0 2.803 1.045 2.803 5.35 0 4.223-.454 5.697-3.795 6.119zM52.716 2.7h-7.734v30.178h7.092V23.78c6.921-.216 10.757-2.81 10.757-10.732 0-7.92-3.11-10.348-10.115-10.348z" fill="#FFF" mask="url(#b)"/><path d="M25.595 4.331c.05-.016.22-.05.416-.119.441-.154.68-.167 1.027-.067.347.1.3.276.284.533a.315.315 0 0 0-.13.079c-.132.117-.271.117-.522.087-.252-.029-.664-.25-.896-.347-.07-.029-.18-.09-.202-.11-.02-.018-.02-.043.023-.056zm29.55 32.55c-.383-1.003-2.566-.629-3.216-.301-.65.328-2.75-.292-4.336-.736-1.586-.444-2.997-.3-3.59.452-.394.5-1.595.931-2.356 1.164a28.62 28.62 0 0 0-2.227-1.144l-.005-.008c-.265-.28.07-.444.414-.604.345-.16.22-.35-.263-.457-.42-.095-3.392-.54-4.167-.655a138.91 138.91 0 0 1-3.538-1.507c-.812-.362-1.543-.7-2.213-1.025-.28-.206-.6-.414-.614-.61-.023-.316-.09-.771.188-1.415.185-.424 1.377-1.16 1.97-1.45.592-.289 1.127-.69 1.625-.42.497.27 1.146.27 1.242.212.095-.058-.02-.251-.287-.405-.267-.154-.344-.52-.344-.52.592-.175 1.53.481 1.587.713.057.232.402 0 .402 0 .515-.579-1.186-1.35-.689-1.582.497-.232.813.268.957.348.298.168.371-.118.195-.515-.309-.695-1.4-.643-1.228-.759.171-.116.516-.078.516-.078s.19.046.229-.192c.058-.356-.592-.426-.975-.407-.382.02-.7.283-.996.117-.125-.07-.098-.186.01-.35.107-.164.392-.452-.12-.462-.711-.014-1 .723-1.052.981-.05.258-.094 1.094-1.033 1.394-1.054.336-2.148.934-3.194 1.006-1.02.07-1.842.571-2.071.764-.168.141-.433.769-.564 1.097a15.12 15.12 0 0 1-1.438-1.283C23.66 25.75 27.407 24.962 27.79 25c.382.038.497-.232.497-.232 1.204-2.836 3.517-2.566 3.517-2.566s1.548-.038 1.72-.078c.173-.038.307-.153.268-1.678-.038-1.524.975-1.582.975-1.582s.708 0 .994.04c.287.037.306-.194.306-.194l.134-.251c.841-1.062 3.04-.444 3.192-.444.154 0 .115-.213.115-.213 0-.52.497-1.177.497-1.177 3.46-2.257 2.656-8.812 2.56-9.237-.095-.424-.443-.335-.57-.03-.126.304-.554 1.351-.554 1.351-.802 2.046-5.52 4.785-6.304 5.23-.784.444-7.026 2.614-7.328 2.714-3.182 1.052-4.2 2.822-4.491 4.075-.2.86-.378 1.67-.728 2.613-.388.995-1.559.694-2.051.515-.626-.92-1.312-1.96-2.097-3.153C13.337 12.95 20.098 6.99 20.098 6.99c.665-.482 1.125-.737 1.494-.854.08.187.213.333.433.407.878.294 2.349.638 4.077 1.856 2.844 2.005 3.612.958 3.747.912.135-.046.678-.569-.112-.614-.79-.045-.88-.48-2.032-1.027-1.151-.547-.813-.752-.813-.752 1.039-1.253 4.356-.319 4.65-.204.294.113.519.523.97 0 1.274-1.48-3.904-2.097-4.017-2.097-.113 0-.34 0-.316-.319.022-.319.787-.52-.768-1.07-.497-.177-1.241-.16-1.444-.434-.204-.273-.7-.41-1.31-.364-.61.045-1.117-.176-1.735-.922-.604-.73-1.518-1.543-2.037-1.498-.519.046.038 1.565.495 2.682.156.382.243.632.292.797-.326.086-.659.2-.995.339l-.13.053-.013.007c-.424.177-1.697.711-2.35.962-1.357.52-1.285.813-.925.906.112.03.189.056.215.103-.527.458-1.034.968-1.508 1.523-.975.883-2.577 2.339-2.845 2.626-.39.42-.447.782-.102.859.274.061.543.13.564.447a12.28 12.28 0 0 0-.503 1.578l-.003-.088s-.478 2.106-.659 3.688c-.071.627.085.674.423.522.049.38.118.76.209 1.144a33.137 33.137 0 0 0 2.476 6.94l-.565-.32s-2.37-1.819-3.341-5.514c-.972-3.696-3.531-6.089-4.098-6.475-.566-.389-5.322-4.414-6.086-6.9L.704 4.02s-.568-.465-.655.464c-.087.93-.465 9.515 3.658 12.438 0 0 .773.884.594 1.294-.178.41.634.695.634.695s1.18.446.975 1.283c-.204.836-.292 1.09.044 1.446.336.356 1.95 1.253 1.986 1.792.035.54.563 1.565-.321 2.017 0 0-.298.299.415.45 0 0 2.062-.101 2.477.967 0 0 .03.404.376.414.344.007 1.11.042 1.413.554.302.512.932.473.932.473s3.367-.542 4.274.338c.052.05.098.086.139.11a30.8 30.8 0 0 0 1.106 1.533c-.356.991-1.087 2.473-2.26 2.434-1.759-.058-3.275-.711-3.275-.711s-.458-.098-.42-.426c.041-.377.004-1.036-.32-1.432-.213-.258-.497-.424-.61-.212-.116.212.264 1.28-.358 1.307 0 0-.16-.014-.217-.091-.056-.077-.592-1.235-1.53-.85 0 0-.286.117-.056.309.23.193.42.444.287.637-.135.193-.784-.83-1.798-.077 0 0-.133.308.192.347.324.04.879.309.822.58l-.25.23s-.917.464-.496 1.235c0 0 .172.136.267-.076.096-.213 1.09-.908 1.606-.425.517.482.192.945-.038 1.061-.229.116-.267.425.057.463.325.038 1.224-.559 1.453-.675.23-.116.854-.078 1.492.192l2.886 1.41s1.111.665 1.892.018c.845-.7 2.973-1.737 4.444-1.081l.3.132a28.838 28.838 0 0 0 2.04 1.607h-.001s2.517 2.502 2.882 2.841c.365.34.523.34.528-.042.002-.218.176-.5.558-.44h.003c.363.175.723.34 1.08.492a239.09 239.09 0 0 1 5.328 2.333c-.225.355-.445.747-.568 1.066-.306.791-.708.967-1.243 1.045-.535.076-2.075.643-3.286.577-1.141-.062-1.75.95-1.99 1.426-.16.317-.329 1.724.322 2.188 0 0 .213-.007.213-.22 0-.212-.14-.707.306-.964.301-.174-.25 1.023.503 1.408 0 0 .151-.098.19-.253.038-.154-.051-1.078.498-1.054 0 0 .149 1.114.76 1.036 0 0 .172.058.115-.213 0 0-.5-1.449.44-1.408.524.023.31.74.333.957.037.347.24.683.393.53.153-.156.768-1.047.306-1.853-.235-.41.8-.521 1.068-.444.267.077 2.435.462 3.328-.52.674-.741 1.343-1.305 2.119-1.474 1.314.977 1.688 2.223.9 3.358-1.446 2.086-10.99 4.788-11.812 5.017 0 0-3.883.803-4.272.902-.39.098-.46.206-.206.38.133.09.235.301.09.516-1.323.945-2.449 2.35-2.495 4.409-.115 5.091 3.9 7.174 11.929 7.058 8.028-.115 10.781 5.323 10.781 5.323.459.752.688.521.688.521-.987-4.98-7.705-7.118-12.133-7.996-.158-.074.14-.458-.044-.63-.113-.106-.205-.05-.686.029-1.05.176-2.204.118-2.749.075l-.197-.02v-.006l-.123-.004-.125-.01s-2.352-.464-2.925-2.083c-1.434-4.05 3.498-5.034 3.498-5.034 12.442-1.757 15.943-4.454 15.943-4.454s4.416-3.125 2.352-7.117c-.29-.56-.597-1.078-.922-1.558-.027-.338-.479-1.001-.688-1.488-.249-.578-.228-1.184.597-1.832.665-.523 4.702-.287 4.702-.287.172.983 1.204 1.485 1.3 1.581.096.097.038-.231.038-.231-.554-.946.279-1.41.757-.986.478.425.604 1.04.815.943.21-.097.24-.425.212-.7-.026-.268-.426-.906-.272-.877.266.049.533.628.63.722.095.093.25.002.28-.1.128-.457 0-.749-.123-1.242.24.084.287.582.377.446.235-.354-.019-.951-.019-.951zM30.25 7.37c-.103-.006-.287.018-.346.112-.318.51.188.493.944 1.01.344.234.616.56.91.853.564.561 1.213 1.241 1.98 1.501.453.154 1.032.155 1.495.04-1.517-.204-2.254-1.66-3.162-2.35 0 0 1.612 1.087 2.366 1.345.753.257 1.877.506 2.351-.302-.433.227-1.227.03-1.92-.283-.488-.221-.904-.566-1.344-.87a5.55 5.55 0 0 0-1.939-.851c-.625-.137-.988-.189-1.335-.206z" fill="#FFF" mask="url(#b)"/><path fill="#FFF" d="M108.495 46.69v-8.208h1.53v6.886h3.04l.122 1.321h-4.692m13.391.112c-1.797 0-2.984-.66-2.984-3.034v-5.285h1.52v5.285c0 1.176.366 1.702 1.486 1.702 1.065 0 1.531-.437 1.531-1.702v-5.285h1.475v5.285c0 2.15-1.065 3.034-3.028 3.034m9.353-.111v-1.423l3.905-5.497h-3.55l-.122-1.288h5.27v1.41l-3.917 5.51h3.816l.1 1.287h-5.502m11.916.001v-8.208h4.814v1.288h-3.284v2.138h3.107v1.276h-3.107v2.218h3.317l.1 1.287h-4.947m14.223-7.009h-1.21v2.653h1.132c.821 0 1.264-.458 1.264-1.388 0-.806-.343-1.265-1.186-1.265zm3.006 7.01a3.617 3.617 0 0 1-.6.055c-.71 0-1.03-.246-1.397-.996l-1.11-2.25h-1.109v3.19h-1.497v-8.207h2.795c1.587 0 2.63.683 2.63 2.396 0 1.131-.51 1.881-1.41 2.24l1 1.903c.143.269.199.336.454.336.088 0 .188-.012.244-.023v1.355zm10.862 0l-2.707-5.05a3.869 3.869 0 0 1-.355-.94h-.1c.033.301.044.626.044.94v5.05h-1.386v-8.208h1.63l2.574 4.792c.144.269.278.594.366.907h.1a8.464 8.464 0 0 1-.055-.907v-4.792h1.386v8.207h-1.497"/></g></svg>